<svg width="720" height="300" viewBox="0 0 720 300" fill="none" xmlns="http://www.w3.org/2000/svg">
  <defs>
    <filter id="glow" x="-50%" y="-50%" width="200%" height="200%">
      <feGaussianBlur stdDeviation="10" result="blur"/>
      <feMerge>
        <feMergeNode in="blur"/>
        <feMergeNode in="SourceGraphic"/>
      </feMerge>
    </filter>
    <linearGradient id="cyan" x1="120" y1="40" x2="620" y2="260" gradientUnits="userSpaceOnUse">
      <stop stop-color="#A5F3FC"/>
      <stop offset="0.45" stop-color="#67E8F9"/>
      <stop offset="1" stop-color="#06B6D4"/>
    </linearGradient>
  </defs>

  <g filter="url(#glow)">
    <path d="M238 66C184 66 141 109 141 150C141 191 184 234 238 234C277 234 308 215 331 186" stroke="url(#cyan)" stroke-width="20" stroke-linecap="round"/>
    <path d="M332 114C307 88 275 66 238 66" stroke="url(#cyan)" stroke-width="20" stroke-linecap="round"/>
    <circle cx="445" cy="93" r="17" fill="url(#cyan)"/>
    <rect x="425" y="120" width="40" height="105" rx="18" fill="url(#cyan)"/>
    <circle cx="404" cy="226" r="12" fill="url(#cyan)"/>
  </g>

  <g opacity="0.18" filter="url(#glow)">
    <path d="M238 66C184 66 141 109 141 150C141 191 184 234 238 234C277 234 308 215 331 186" stroke="#E0FBFF" stroke-width="8" stroke-linecap="round"/>
    <path d="M332 114C307 88 275 66 238 66" stroke="#E0FBFF" stroke-width="8" stroke-linecap="round"/>
    <circle cx="445" cy="93" r="8" fill="#E0FBFF"/>
    <rect x="438" y="134" width="14" height="78" rx="7" fill="#E0FBFF"/>
    <circle cx="404" cy="226" r="5" fill="#E0FBFF"/>
  </g>
</svg>
